<svg width="548" height="92" viewBox="0 0 548 92" fill="none" xmlns="http://www.w3.org/2000/svg">
<rect x="7.58839" y="7.58948" width="21.6825" height="75.8904" rx="1.89726" fill="#FA4632"/>
<rect x="61.7958" y="7.58948" width="21.6825" height="75.8904" rx="1.89726" fill="#50B4CD"/>
<rect x="34.6941" y="7.58948" width="21.6825" height="33.7291" rx="1.89726" fill="#FFC8D7"/>
<rect x="34.6941" y="46.9398" width="21.6825" height="36.5398" rx="1.89726" fill="#235564"/>
<path d="M234.344 48.788L232.332 48.4559C230.544 48.1629 228.151 47.694 226.921 47.0688C225.543 46.3753 225.289 45.3594 225.26 44.8124C225.221 44.1286 225.475 43.4742 225.963 42.9858C226.93 41.9992 228.513 41.4619 230.535 41.4326H230.711C233.162 41.4326 235.116 42.3313 235.692 43.7184L235.741 43.8356H248.83L248.791 43.6109C248.567 42.302 246.134 30.8342 230.525 30.8342C221.655 30.8342 212.102 35.5034 212.102 45.7501C212.102 53.8577 219.868 58.5854 227.565 59.6697C228.063 59.7381 229.069 59.8748 229.568 59.9334C234.364 60.4707 236.786 61.8578 236.786 64.0751C236.786 64.9054 236.503 65.6087 235.936 66.1557C234.94 67.1228 233.055 67.6698 230.935 67.6112H230.847C227.936 67.5428 225.983 66.6441 225.055 64.9152L224.996 64.8175L211.692 64.837L211.751 65.0812C214.183 74.9763 223.209 78.5026 230.847 78.5026C240.313 78.5026 249.856 73.7846 249.856 63.2448C249.856 54.5805 241.827 50.097 234.315 48.788H234.344Z" fill="black"/>
<path d="M486.334 32.5438C486.178 32.5438 486.022 32.5438 485.866 32.5438C481.314 32.5438 477.475 35.0835 475.189 39.5964V32.1628H461.719V77.4967H475.775V57.3841C475.775 50.4878 479.135 46.688 485.24 46.688C486.911 46.688 488.708 47.0494 489.831 47.6062L490.115 47.743L490.242 33.3448L490.125 33.2959C489.128 32.8661 487.819 32.6122 486.344 32.5633L486.334 32.5438Z" fill="black"/>
<path d="M138.179 32.778C133.128 32.778 128.84 34.7609 126.056 38.3751V15.0001H112V77.8676H126.056V53.672C126.056 49.247 129.29 45.9063 133.568 45.9063C135.59 45.9063 137.241 46.6096 138.442 48.0065C139.585 49.4912 140.161 51.4839 140.161 53.926V77.8774H154.218V51.5523C154.218 42.8978 150.018 32.7975 138.179 32.7975V32.778Z" fill="black"/>
<path d="M280.971 32.3869C275.921 32.3869 271.633 34.3698 268.849 37.9841V15H254.793V77.4766H268.849V53.2809C268.849 48.856 272.082 45.5153 276.361 45.5153C278.383 45.5153 280.033 46.2186 281.235 47.6154C282.378 49.1002 282.954 51.0929 282.954 53.5349V77.4863H297.01V51.1612C297.01 42.5067 292.81 32.4065 280.971 32.4065V32.3869Z" fill="black"/>
<path d="M331.017 32.0748C325.986 32.0748 321.425 34.0772 317.801 37.877V15.0001H303.754L303.754 77.477H317.049V72.2901C320.585 76.3341 325.088 78.4733 330.099 78.4733C337.982 78.4733 342.934 74.4977 345.698 71.1668C349.273 66.8591 351.325 60.9591 351.325 54.981C351.325 43.7184 343.725 32.065 331.017 32.065V32.0748ZM327.325 65.7357C321.092 65.7357 317.732 60.3535 317.732 55.2838C317.732 50.2142 321.092 44.8319 327.325 44.8319C333.557 44.8319 336.917 50.2142 336.917 55.2838C336.917 60.3535 333.557 65.7357 327.325 65.7357Z" fill="black"/>
<path d="M525.944 17.7838V37.8768C522.32 34.077 517.768 32.0746 512.727 32.0746C500.009 32.0746 492.42 43.7279 492.42 54.9906C492.42 60.9687 494.471 66.8686 498.046 71.1763C500.81 74.5073 505.763 78.4829 513.646 78.4829C518.657 78.4829 523.16 76.3437 526.696 72.2997V77.4865H539.99V15.0001H525.934L525.944 17.7838ZM516.42 65.7257C510.188 65.7257 506.828 60.3435 506.828 55.2738C506.828 50.2042 510.188 44.822 516.42 44.822C522.652 44.822 526.012 50.2042 526.012 55.2738C526.012 60.3435 522.652 65.7257 516.42 65.7257Z" fill="black"/>
<path d="M440.578 37.7108V37.8768C436.954 34.077 432.402 32.0746 427.361 32.0746C414.643 32.0746 407.053 43.7279 407.053 54.9906C407.053 60.9687 409.105 66.8686 412.68 71.1764C415.444 74.5073 420.397 78.4829 428.279 78.4829C433.291 78.4829 437.794 76.3437 441.33 72.2997V77.4866H454.624V32.1527H440.568V37.7108H440.578ZM431.054 65.7355C424.822 65.7355 421.461 60.3533 421.461 55.2836C421.461 50.214 424.822 44.8317 431.054 44.8317C437.286 44.8317 440.646 50.214 440.646 55.2836C440.646 60.3533 437.286 65.7355 431.054 65.7355Z" fill="black"/>
<path d="M192.666 37.7108V37.8768C189.042 34.077 184.49 32.0746 179.45 32.0746C166.732 32.0746 159.142 43.7279 159.142 54.9906C159.142 60.9687 161.193 66.8686 164.769 71.1764C167.533 74.5073 172.485 78.4829 180.368 78.4829C185.379 78.4829 189.882 76.3437 193.418 72.2997V77.4866H206.713V32.1527H192.657V37.7108H192.666ZM183.142 65.7355C176.91 65.7355 173.55 60.3533 173.55 55.2836C173.55 50.214 176.91 44.8317 183.142 44.8317C189.374 44.8317 192.735 50.214 192.735 55.2836C192.735 60.3533 189.374 65.7355 183.142 65.7355Z" fill="black"/>
<path d="M379.362 31.3712C365.589 31.3712 355.196 41.5496 355.196 55.0491C355.196 68.5487 365.443 78.4731 379.03 78.4731C392.618 78.4731 403.197 68.3338 403.197 54.8831C403.197 41.4324 392.95 31.381 379.362 31.381V31.3712ZM379.196 65.5499C375.66 65.5499 372.476 63.5572 370.903 60.3435C370.044 58.8196 369.604 57.0125 369.604 54.971C369.604 49.8037 372.964 44.3042 379.196 44.3042C382.772 44.3042 385.673 46.082 387.568 49.4227C388.388 51.1028 388.789 52.9099 388.789 54.971C388.789 61.8477 383.846 65.5596 379.196 65.5596V65.5499Z" fill="black"/>
</svg>
